<svg id="Ebene_1" data-name="Ebene 1" xmlns="http://www.w3.org/2000/svg" viewBox="0 0 221.64 132.54"><defs><style>.cls-2{fill:#fff}</style></defs><path fill="#b2b2b2" d="M210.3 95.62"/><path class="cls-2" d="M240.11 40.29c-2.39-1.09-59-26.59-104.17-26.59S34.15 39.2 31.76 40.29l-6.64 3v73.31l6.64 3c2.39 1.08 59 26.59 104.18 26.59s101.78-25.51 104.17-26.59l6.65-3V43.31zm-2.71 70.31l-1.16.52c-.57.26-57.15 25.76-100.31 25.76s-99.73-25.5-100.3-25.76l-1.16-.52V49.34l1.16-.53c.57-.26 57.15-25.76 100.3-25.76s99.74 25.5 100.31 25.76l1.16.53z" transform="translate(-25.12 -13.7)"/><path class="cls-2" d="M194.22 62.32h-2.8V74.7h3.37c1.15 0 2.12-1 2.12-2.92v-6.25c0-2.4-1.1-3.21-2.69-3.21z" transform="translate(-25.12 -13.7)"/><path class="cls-2" d="M135.93 27C97 27 46.69 48.3 38.44 51.9V108c8.25 3.6 58.59 24.88 97.49 24.88s89.25-21.28 97.5-24.88V51.9c-8.25-3.6-58.59-24.9-97.5-24.9zm-45.5 35.25h-9.8v49.49H70.38V62.25H58.47V49h32zm14.69 49.55H92.77V49.1h12.35zm36.12-39.59h-11.62V65a2.7 2.7 0 0 0-2.92-2.74 2.66 2.66 0 0 0-2.49 2.31v31a3.12 3.12 0 0 0 2.79 2.79 2.58 2.58 0 0 0 2.58-2.74V86h-3V74.61h14.61V102c0 5.75-2.86 9.8-13.87 9.8s-14.8-5-14.8-11.68V60.3c0-7.21 3.7-11.25 13.94-11.25s14.75 3.19 14.75 11.16zm31.72-10H162v12.5h11v11.36h-11v12.49h11v13.2h-23.28v-.05h-.12V49.1h.12v-.05H173zm25.46 49.4l-7-23.48v23.54h-12.35V49.1h16.14c6.56 0 13.9 1 13.9 11.11V73c0 6.85.41 9.77-5.77 13.8l7.46 24.86z" transform="translate(-25.12 -13.7)"/></svg>